# xmcd
#
# Track frame offsets: 
#        150
#        15643
#        30649
#        49095
#        61026
#        78092
#        94694
#        107564
#        121466
#        136280
#        149179
#        159307
#        172230
#        185813
#        203222
#        218070
#        234615
#        253251
#        269985
#        284034
#        298808
#        313785
#        328278
#        338729
#
# Disc length: 4764 seconds
#
# Revision: 0
# Processed by: cddbd v1.5.2PL0 Copyright (c) Steve Scherf et al.
# Submitted via: ExactAudioCopyFreeDBPlugin 1.0
#
DISCID=83129a18
DTITLE=Various Artist - Revolution On Air
DYEAR=2012
DGENRE=Hip-hop
TTITLE0=Fedayin (Haut-Antik) - Frades Prod - 01 L'avenir ne s'annonce 
TTITLE0=pas tendre...
TTITLE1=Ikar - Lawjazz - 02 La Potence
TTITLE2=Dogzy Blue Malone, L'inkredul et Chromatoks - Riga - 03 2 Dans
TTITLE2=Ma Tête
TTITLE3=Mr.Bil - Kesta - 04 Dexter
TTITLE4=Rox Anuar - Lawjazz - 05 Ile aux trésor
TTITLE5=Cenzino - N'Drin - 06 Derrière mon sourire
TTITLE6=BraccoBrax - Source2Prod - 07 Rime et Chatiment
TTITLE7=AsX - Lawjazz - 08 Anti-Etat
TTITLE8=1sangC - Asma Thonik - 09 On m'a dit
TTITLE9=A's - Benni Blanco - 10 Ma è così
TTITLE10=L'Grek - TizmeProd - 11 Prise en main
TTITLE11=Basengo - Colors - 12 Le juste milieu
TTITLE12=Kalhi - Face B - 13 U can't Run
TTITLE13=Messager - Lawjazz - 14 Original
TTITLE14=MC Vinke - Tangerino - 15 Pourquoi vous parlez tous?
TTITLE15=SarkaSM et Kaiser - G.maux - 16 Detox
TTITLE16=10Vers,M.etik et Neka - Lyrikal Records - 17 J'vide mon sac
TTITLE17=Spiral - Lawjazz - 18 Le mic sur le coeur
TTITLE18=Macro - Face B - 19 J'te cache pas
TTITLE19=Libomaman - Face B - 20 Badman
TTITLE20=Labsyl - Chromatiks - 21 Je ne suis pas comme les autres
TTITLE21=Mr.White - Face B - 22 Rogerz
TTITLE22=Meija Essence - Lawjazz - 23 Style Libre
TTITLE23=Haut-Antik - Karim W - 24 Ouvrez les yeux
EXTD=
EXTT0=
EXTT1=
EXTT2=
EXTT3=
EXTT4=
EXTT5=
EXTT6=
EXTT7=
EXTT8=
EXTT9=
EXTT10=
EXTT11=
EXTT12=
EXTT13=
EXTT14=
EXTT15=
EXTT16=
EXTT17=
EXTT18=
EXTT19=
EXTT20=
EXTT21=
EXTT22=
EXTT23=
PLAYORDER=
